{
	"asset":{
		"copyright":"EvanIvory",
		"generator":"Khronos glTF Blender I/O v4.5.48",
		"version":"2.0"
	},
	"extensionsUsed":[
		"KHR_materials_unlit",
		"EXT_texture_webp"
	],
	"extensionsRequired":[
		"EXT_texture_webp"
	],
	"scene":0,
	"scenes":[
		{
			"name":"Scene",
			"nodes":[
				0
			]
		}
	],
	"nodes":[
		{
			"mesh":0,
			"name":"Sphere"
		}
	],
	"materials":[
		{
			"doubleSided":true,
			"extensions":{
				"KHR_materials_unlit":{}
			},
			"name":"Material.001",
			"pbrMetallicRoughness":{
				"baseColorTexture":{
					"index":0
				},
				"metallicFactor":0,
				"roughnessFactor":0.9
			}
		}
	],
	"meshes":[
		{
			"name":"Sphere",
			"primitives":[
				{
					"attributes":{
						"POSITION":0,
						"NORMAL":1,
						"TEXCOORD_0":2
					},
					"indices":3,
					"material":0
				}
			]
		}
	],
	"textures":[
		{
			"extensions":{
				"EXT_texture_webp":{
					"source":0
				}
			},
			"sampler":0
		}
	],
	"images":[
		{
			"mimeType":"image/webp",
			"name":"litBake",
			"uri":"../litBake/litBake.png"
		},
		{
			"mimeType":"image/png",
			"name":"BakedSwirl",
			"uri":"litBake/BakedSwirl.png"
		},
		{
			"mimeType":"image/png",
			"name":"ballwithswirl",
			"uri":"litBake/ballwithswirl.png"
		},
		{
			"mimeType":"image/png",
			"name":"image",
			"uri":"litBake/image.png"
		},
		{
			"mimeType":"image/png",
			"name":"litBake",
			"uri":"litBake/litBake.png"
		},
		{
			"mimeType":"image/png",
			"name":"SwirlBall",
			"uri":"litBake/SwirlBall.png"
		},
		{
			"mimeType":"image/png",
			"name":"swirly",
			"uri":"litBake/swirly.png"
		},
		{
			"mimeType":"image/png",
			"name":"swirlyball",
			"uri":"litBake/swirlyball.png"
		},
		{
			"mimeType":"image/png",
			"name":"swirlyballshad",
			"uri":"litBake/swirlyballshad.png"
		},
		{
			"mimeType":"image/png",
			"name":"Untitled",
			"uri":"litBake/Untitled.png"
		},
		{
			"mimeType":"image/png",
			"name":"Untitled",
			"uri":"litBake/Untitled-1.png"
		}
	],
	"accessors":[
		{
			"bufferView":0,
			"componentType":5126,
			"count":126976,
			"max":[
				0.9872310161590576,
				0.9975767135620117,
				0.9872307181358337
			],
			"min":[
				-0.9872305393218994,
				-0.9975767135620117,
				-0.9872310161590576
			],
			"type":"VEC3"
		},
		{
			"bufferView":1,
			"componentType":5126,
			"count":126976,
			"type":"VEC3"
		},
		{
			"bufferView":2,
			"componentType":5126,
			"count":126976,
			"type":"VEC2"
		},
		{
			"bufferView":3,
			"componentType":5125,
			"count":190464,
			"type":"SCALAR"
		}
	],
	"bufferViews":[
		{
			"buffer":0,
			"byteLength":1523712,
			"byteOffset":0,
			"target":34962
		},
		{
			"buffer":0,
			"byteLength":1523712,
			"byteOffset":1523712,
			"target":34962
		},
		{
			"buffer":0,
			"byteLength":1015808,
			"byteOffset":3047424,
			"target":34962
		},
		{
			"buffer":0,
			"byteLength":761856,
			"byteOffset":4063232,
			"target":34963
		}
	],
	"samplers":[
		{
			"magFilter":9729,
			"minFilter":9987
		}
	],
	"buffers":[
		{
			"byteLength":4825088,
			"uri":"SwirlBall.bin"
		}
	]
}
